<svg width="86px" height="84px" viewBox="0 0 430 420" version="1.1" xmlns="http://www.w3.org/2000/svg">
<g id="#4e9cdaff">
<path fill="#4e9cda" opacity="1.00" d=" M 208.40 0.00 L 221.50 0.00 C 266.94 1.32 311.88 17.04 347.90 44.84 C 352.79 35.36 356.58 25.33 359.26 15.01 C 364.52 14.99 369.78 15.00 375.04 15.00 C 371.83 28.88 366.74 42.32 359.97 54.85 C 384.93 77.13 404.64 105.32 416.54 136.62 C 424.83 158.20 429.26 181.20 430.00 204.29 L 430.00 216.56 C 428.56 262.69 411.09 308.04 381.24 343.24 C 354.40 375.24 317.97 399.01 277.94 410.89 C 259.66 416.40 240.64 419.28 221.56 420.00 L 208.48 420.00 C 175.63 418.93 142.99 410.67 113.85 395.39 C 80.58 378.08 51.91 351.93 31.90 320.18 C 12.25 289.30 1.24 253.12 0.00 216.56 L 0.00 203.43 C 0.97 177.57 6.55 151.86 16.92 128.13 C 34.65 87.05 66.05 52.18 104.67 29.68 C 136.03 11.24 172.09 1.17 208.40 0.00 M 202.06 15.77 C 161.55 18.17 121.88 33.14 89.97 58.22 C 108.09 85.67 135.70 106.61 166.92 116.92 C 201.01 128.26 239.15 127.11 272.41 113.46 C 299.81 102.37 323.71 82.87 340.05 58.23 C 301.35 27.71 251.19 12.47 202.06 15.77 M 33.90 127.88 C 74.56 170.18 130.63 197.08 188.99 202.80 C 231.14 207.08 274.38 200.88 313.43 184.38 C 344.43 171.39 372.75 152.06 396.10 127.87 C 385.36 105.37 370.16 85.06 351.80 68.21 C 328.23 103.25 290.44 128.19 249.09 136.57 C 216.85 143.23 182.64 140.29 152.13 127.86 C 122.34 115.82 96.19 94.86 78.19 68.22 C 59.83 85.07 44.63 105.38 33.90 127.88 M 27.29 143.19 C 11.99 184.34 11.23 230.77 25.74 272.24 C 37.40 306.10 58.86 336.39 86.56 359.02 C 96.15 339.68 110.39 322.70 127.60 309.69 C 150.46 292.31 178.64 282.14 207.30 280.72 C 207.33 260.28 207.29 239.84 207.32 219.40 C 183.52 218.68 159.80 214.95 137.00 208.06 C 95.86 195.77 57.99 173.16 27.29 143.19 M 333.87 191.96 C 299.36 209.04 261.12 218.28 222.66 219.43 C 222.73 239.86 222.66 260.29 222.70 280.72 C 242.59 281.75 262.27 286.87 280.07 295.81 C 307.23 309.36 329.97 331.78 343.44 359.03 C 374.84 333.41 398.13 297.88 408.41 258.63 C 418.45 220.76 416.41 179.80 402.61 143.12 C 382.53 162.96 359.19 179.48 333.87 191.96 M 156.17 309.91 C 131.38 322.45 110.70 343.27 99.01 368.53 C 130.72 390.50 168.74 403.21 207.31 404.50 C 207.31 368.38 207.30 332.26 207.32 296.14 C 189.56 297.14 172.03 301.85 156.17 309.91 M 222.68 296.15 C 222.71 332.27 222.68 368.38 222.69 404.50 C 261.26 403.20 299.30 390.51 331.00 368.51 C 323.88 353.14 313.38 339.41 300.72 328.17 C 279.29 309.13 251.30 297.69 222.68 296.15 Z" />
<path fill="#4e9cda" opacity="1.00" d=" M 141.30 50.46 C 147.91 47.34 156.45 51.92 157.56 59.12 C 159.13 66.09 153.14 73.41 145.98 73.16 C 139.51 73.37 133.80 67.39 134.19 60.95 C 134.27 56.47 137.17 52.20 141.30 50.46 Z" />
</g>
</svg>
