<svg width="143px" height="140px" viewBox="0 0 715 700" version="1.1" xmlns="http://www.w3.org/2000/svg">
<g id="#4e9cdaff">
<path fill="#4e9cda" opacity="1.00" d=" M 352.30 0.00 L 368.11 0.00 C 420.67 1.74 472.94 14.45 519.96 38.11 C 540.59 48.43 560.21 60.74 578.48 74.82 C 586.59 58.98 593.02 42.27 597.40 25.02 C 606.13 24.97 614.87 25.01 623.61 25.00 C 618.31 48.14 609.83 70.53 598.53 91.41 C 644.85 132.86 680.24 186.61 698.96 245.96 C 709.17 278.03 714.52 311.61 715.00 345.25 L 715.00 358.56 C 713.86 397.73 706.34 436.75 692.20 473.33 C 669.25 533.22 629.17 586.26 578.33 625.30 C 527.21 664.77 465.23 689.92 401.10 697.44 C 389.64 698.86 378.11 699.50 366.58 700.00 L 348.51 700.00 C 310.72 698.89 273.05 692.30 237.35 679.77 C 177.48 658.94 123.33 621.91 82.36 573.53 C 59.24 546.29 40.27 515.51 26.49 482.53 C 10.01 443.33 1.21 401.04 0.00 358.56 L 0.00 345.24 C 0.44 315.09 4.76 284.99 13.02 255.99 C 26.80 207.34 51.58 161.90 84.71 123.72 C 123.70 78.64 174.22 43.66 230.07 22.86 C 269.09 8.25 310.65 0.60 352.30 0.00 M 278.79 34.74 C 231.92 45.89 187.41 67.18 149.58 97.06 C 167.65 124.49 191.43 148.10 218.79 166.27 C 254.47 189.95 296.34 204.16 339.06 207.13 C 393.56 211.23 449.30 197.13 494.99 167.07 C 522.86 148.80 547.08 124.89 565.42 97.05 C 544.12 80.22 520.67 66.13 495.90 55.02 C 428.40 24.55 350.78 17.62 278.79 34.74 M 56.37 213.11 C 108.57 267.58 176.15 306.92 249.05 326.17 C 309.83 342.29 374.22 344.47 436.01 332.93 C 520.20 317.26 599.37 275.01 658.63 213.10 C 640.82 175.62 615.56 141.75 584.99 113.71 C 551.29 163.65 500.41 201.61 443.06 220.00 C 373.36 242.67 294.68 236.39 229.72 202.32 C 189.85 181.61 155.17 150.95 130.03 113.70 C 99.44 141.72 74.18 175.62 56.37 213.11 M 45.51 238.49 C 31.56 275.96 24.67 316.03 25.50 356.01 C 26.38 413.65 43.61 470.82 74.33 519.56 C 93.06 549.37 116.71 576.06 143.92 598.39 C 162.83 560.15 192.63 527.49 228.66 504.71 C 263.33 482.71 303.75 469.93 344.75 467.90 C 344.74 433.81 344.77 399.71 344.74 365.62 C 311.40 364.65 278.16 360.09 245.86 351.77 C 170.64 332.59 100.67 293.14 45.51 238.49 M 613.44 285.29 C 542.66 335.29 456.87 363.39 370.28 365.61 C 370.21 399.71 370.27 433.81 370.25 467.90 C 418.86 470.27 466.61 487.89 505.00 517.83 C 532.66 539.30 555.54 566.98 571.08 598.38 C 582.46 589.07 593.18 578.97 603.20 568.22 C 652.29 515.88 683.25 446.71 688.59 375.07 C 692.25 328.87 685.72 281.90 669.47 238.48 C 652.21 255.67 633.36 271.27 613.44 285.29 M 229.93 534.79 C 202.08 555.31 179.25 582.71 164.58 614.08 C 217.16 650.95 280.59 672.00 344.75 674.17 C 344.75 613.95 344.74 553.74 344.75 493.52 C 303.56 495.79 263.11 510.26 229.93 534.79 M 370.25 674.17 C 434.41 671.99 497.84 650.96 550.41 614.08 C 533.64 578.15 506.12 547.46 472.64 526.29 C 442.05 506.88 406.45 495.60 370.31 493.47 C 370.17 553.70 370.29 613.94 370.25 674.17 Z" />
<path fill="#4e9cda" opacity="1.00" d=" M 236.44 83.57 C 242.46 81.50 249.45 82.59 254.50 86.48 C 259.85 90.46 262.86 97.29 262.23 103.92 C 261.73 110.54 257.60 116.73 251.68 119.74 C 245.42 123.04 237.37 122.54 231.60 118.43 C 225.66 114.40 222.34 106.93 223.30 99.82 C 224.09 92.47 229.43 85.89 236.44 83.57 Z" />
</g>
</svg>
