<svg width="20px" height="26px" viewBox="0 0 100 130" version="1.1" xmlns="http://www.w3.org/2000/svg">
<g id="#4e9cdaff">
<path fill="#4e9cda" opacity="1.00" d=" M 5.70 19.53 C 8.77 12.42 15.00 7.01 22.12 4.18 C 26.02 3.20 30.75 4.62 32.75 8.29 C 36.95 15.07 41.17 21.83 45.33 28.62 C 47.92 32.49 46.61 38.23 42.66 40.65 C 39.04 42.95 35.26 45.00 31.59 47.24 C 33.97 56.20 37.09 65.07 42.11 72.93 C 46.94 80.92 53.52 87.63 60.46 93.79 C 64.12 91.70 67.69 89.44 71.38 87.40 C 75.40 85.11 81.14 86.30 83.58 90.33 C 87.86 97.12 92.05 103.97 96.28 110.78 C 98.22 113.62 98.26 117.53 96.41 120.42 C 95.16 122.56 92.86 123.65 90.83 124.89 C 83.19 129.62 73.27 130.48 64.97 126.96 C 46.49 119.69 32.38 104.52 21.75 88.17 C 13.62 75.17 5.79 61.48 2.88 46.24 C 1.06 37.29 2.37 27.97 5.70 19.53 Z" />
</g>
</svg>